<?xml version="1.0" encoding="UTF-8" standalone="no"?><!-- Created with Inkscape (http://www.inkscape.org/) -->
<!--suppress ALL -->
<svg width="192" height="192" viewBox="0 0 50.8 50.8" version="1.1" id="svg1101"
    xmlns="http://www.w3.org/2000/svg" xmlns:svg="http://www.w3.org/2000/svg">
    <defs id="defs1098">
        <linearGradient id="linearGradient8002">
            <stop style="stop-color:#ffffff;stop-opacity:1;" offset="0" id="stop8000" />
        </linearGradient>
    </defs>
    <g id="layer1" style="display:inline" transform="translate(-13.592309,-13.567843)">
        <g id="g147986" transform="matrix(1.7125802,0,0,1.7125802,-1.9148815,-4.7157675)">
            <g id="g953"
                transform="matrix(0.93550691,0.25066832,-0.25066832,0.93550691,8.6482734,-4.3167703)">
                <path id="circle3577"
                    style="display:inline;fill:#4d4d4d;fill-opacity:1;stroke:#333333;stroke-width:0.325824"
                    d="m 27.155393,29.617176 a 2.8306153,2.8306153 0 0 1 -2.830615,2.830615 2.8306153,2.8306153 0 0 1 -2.830616,-2.830615 2.8306153,2.8306153 0 0 1 2.830616,-2.830615 2.8306153,2.8306153 0 0 1 2.830615,2.830615 z" />
                <path id="circle5975"
                    style="display:inline;fill:#b3b3b3;fill-opacity:0.907301;stroke:#333333;stroke-width:0"
                    d="m 26.920842,29.753044 a 2.5284126,2.5258744 0 0 1 -2.528413,2.525875 2.5284126,2.5258744 0 0 1 -2.528412,-2.525875 2.5284126,2.5258744 0 0 1 2.528412,-2.525874 2.5284126,2.5258744 0 0 1 2.528413,2.525874 z" />
                <path
                    style="fill:none;stroke:#000000;stroke-width:0.223816px;stroke-linecap:round;stroke-linejoin:miter;stroke-opacity:1"
                    d="M 22.529127,31.412829 26.13169,27.810267" id="path4688" />
                <path
                    style="fill:none;stroke:#000000;stroke-width:0.224172px;stroke-linecap:round;stroke-linejoin:miter;stroke-opacity:1"
                    d="M 26.132767,31.425166 22.524469,27.816867" id="path4686" />
                <path
                    style="fill:none;stroke:#000000;stroke-width:0.229092px;stroke-linecap:round;stroke-linejoin:miter;stroke-opacity:1"
                    d="M 26.876602,29.617177 H 21.773921" id="path4684" />
                <path
                    style="fill:none;stroke:#000000;stroke-width:0.233872px;stroke-linecap:round;stroke-linejoin:miter;stroke-opacity:1"
                    d="m 24.324778,27.068602 v 5.092391" id="path89495" />
                <path id="path89460"
                    style="display:inline;fill:#666666;stroke:#333333;stroke-width:0.144597;stroke-opacity:0.698039"
                    d="m 24.841524,29.617176 a 0.51674688,0.55425388 0 0 1 -0.516746,0.554254 0.51674688,0.55425388 0 0 1 -0.516747,-0.554254 0.51674688,0.55425388 0 0 1 0.516747,-0.554254 0.51674688,0.55425388 0 0 1 0.516746,0.554254 z" />
            </g>
            <g id="g864" transform="matrix(0.96850802,0,0,0.96850802,0.75222661,1.113802)"
                style="stroke:#333333;stroke-opacity:0.7">
                <path id="circle3575" style="display:inline;fill:#ffffff;stroke-width:0.184816"
                    d="m 33.30313,28.63686 a 2.2415059,2.2415059 0 0 1 -2.241505,2.241506 2.2415059,2.2415059 0 0 1 -2.241506,-2.241506 2.2415059,2.2415059 0 0 1 2.241506,-2.241506 2.2415059,2.2415059 0 0 1 2.241505,2.241506 z" />
                <path
                    style="fill:#bd1b25;fill-opacity:1;stroke:#333333;stroke-width:0;stroke-linecap:butt;stroke-linejoin:miter;stroke-miterlimit:4;stroke-dasharray:none;stroke-opacity:0.7"
                    d="m 31.503589,27.338821 -0.834611,1.099224 0.80943,0.198009 z"
                    id="path105312" />
                <path id="path93926" style="fill:#b8121c;stroke-width:0.0924078"
                    d="m 31.518269,28.63686 a 0.45664418,0.45664418 0 0 1 -0.456644,0.456644 0.45664418,0.45664418 0 0 1 -0.456645,-0.456644 0.45664418,0.45664418 0 0 1 0.456645,-0.456644 0.45664418,0.45664418 0 0 1 0.456644,0.456644 z" />
            </g>
            <g id="ziffern" transform="matrix(0.96850802,0,0,0.96850802,0.75222661,0.80328113)">
                <path id="rect3454"
                    style="display:inline;fill:#ffffff;stroke:#333333;stroke-width:0.164498;stroke-opacity:0.7"
                    d="m 31.144964,18.62546 h 2.301543 v 3.299251 h -2.301543 z" />
                <path id="rect3452"
                    style="display:inline;fill:#ffffff;stroke:#333333;stroke-width:0.164498;stroke-opacity:0.7"
                    d="m 28.84342,18.62546 h 2.301543 v 3.299251 H 28.84342 Z" />
                <path id="rect3450"
                    style="display:inline;fill:#ffffff;stroke:#333333;stroke-width:0.164498;stroke-opacity:0.7"
                    d="m 26.541878,18.62546 h 2.301543 v 3.299251 h -2.301543 z" />
                <path id="rect3448"
                    style="display:inline;fill:#ffffff;stroke:#333333;stroke-width:0.164498;stroke-opacity:0.7"
                    d="m 24.240334,18.62546 h 2.301542 v 3.299251 h -2.301542 z" />
                <path id="rect3446"
                    style="display:inline;fill:#ffffff;stroke:#333333;stroke-width:0.164498;stroke-opacity:0.7"
                    d="m 21.938789,18.62546 h 2.301543 v 3.299251 h -2.301543 z" />
                <path id="rect3444"
                    style="display:inline;fill:#ffffff;stroke:#333333;stroke-width:0.164498;stroke-opacity:0.7"
                    d="m 19.637247,18.62546 h 2.301543 v 3.299251 h -2.301543 z" />
                <path id="rect3442"
                    style="display:inline;fill:#ffffff;stroke:#333333;stroke-width:0.164498;stroke-opacity:0.7"
                    d="m 17.335703,18.62546 h 2.301543 v 3.299251 h -2.301543 z" />
                <path id="rect3112"
                    style="display:inline;fill:#ffffff;stroke:#333333;stroke-width:0.164498;stroke-opacity:0.7"
                    d="m 15.034159,18.62546 h 2.301542 v 3.299251 h -2.301542 z" />
                <g aria-label="0" id="text1"
                    style="font-weight:bold;font-size:3.25994px;line-height:1.25;font-family:Roboto;-inkscape-font-specification:'Roboto, Bold';letter-spacing:0px;word-spacing:0px;fill:#150000;fill-opacity:0.75;stroke-width:0.244495">
                    <path
                        d="m 16.968079,20.475649 q 0,0.480714 -0.198971,0.735397 -0.198971,0.254683 -0.582587,0.254683 -0.378841,0 -0.579403,-0.249908 -0.200563,-0.249907 -0.205338,-0.716295 v -0.426594 q 0,-0.485489 0.200562,-0.736988 0.202155,-0.2515 0.580995,-0.2515 0.378841,0 0.579404,0.249908 0.200563,0.248316 0.205338,0.714703 z m -0.460021,-0.46798 q 0,-0.288109 -0.07959,-0.418634 -0.078,-0.132117 -0.245133,-0.132117 -0.16236,0 -0.240356,0.12575 -0.0764,0.124157 -0.08118,0.389983 v 0.563485 q 0,0.283335 0.0764,0.421819 0.078,0.136892 0.248316,0.136892 0.168727,0 0.24354,-0.132117 0.07481,-0.132117 0.078,-0.404309 z"
                        id="path16808" />
                </g>
                <g aria-label="0" id="text2"
                    style="font-weight:bold;font-size:3.25994px;line-height:1.25;font-family:Roboto;-inkscape-font-specification:'Roboto, Bold';letter-spacing:0px;word-spacing:0px;fill:#150000;fill-opacity:0.75;stroke-width:0.244495">
                    <path
                        d="m 19.269622,20.475649 q 0,0.480714 -0.198971,0.735397 -0.198971,0.254683 -0.582587,0.254683 -0.37884,0 -0.579403,-0.249908 -0.200563,-0.249907 -0.205338,-0.716295 v -0.426594 q 0,-0.485489 0.200563,-0.736988 0.202154,-0.2515 0.580995,-0.2515 0.37884,0 0.579403,0.249908 0.200563,0.248316 0.205338,0.714703 z m -0.460021,-0.46798 q 0,-0.288109 -0.07959,-0.418634 -0.078,-0.132117 -0.245132,-0.132117 -0.162361,0 -0.240357,0.12575 -0.0764,0.124157 -0.08118,0.389983 v 0.563485 q 0,0.283335 0.07641,0.421819 0.078,0.136892 0.248315,0.136892 0.168728,0 0.243541,-0.132117 0.07481,-0.132117 0.078,-0.404309 z"
                        id="path16811" />
                </g>
                <g aria-label="5" id="text3"
                    style="font-weight:bold;font-size:3.25994px;line-height:1.25;font-family:Roboto;-inkscape-font-specification:'Roboto, Bold';letter-spacing:0px;word-spacing:0px;fill:#150000;fill-opacity:0.75;stroke-width:0.244495">
                    <path
                        d="m 20.062968,20.278269 0.133708,-1.177908 h 1.298883 v 0.383616 h -0.921634 l -0.0573,0.498223 q 0.163952,-0.08755 0.348597,-0.08755 0.331087,0 0.518916,0.205338 0.187829,0.205338 0.187829,0.574628 0,0.224439 -0.09551,0.402717 -0.09392,0.176686 -0.270601,0.275376 -0.176686,0.0971 -0.417043,0.0971 -0.210113,0 -0.389983,-0.08436 -0.17987,-0.08595 -0.284926,-0.240357 -0.103465,-0.154401 -0.109832,-0.35178 h 0.455245 q 0.01433,0.14485 0.100281,0.226031 0.08755,0.07959 0.227623,0.07959 0.155993,0 0.240357,-0.111424 0.08436,-0.113015 0.08436,-0.318353 0,-0.197379 -0.0971,-0.302436 -0.0971,-0.105057 -0.275376,-0.105057 -0.163952,0 -0.265825,0.08596 l -0.04457,0.04139 z"
                        id="path16814" />
                </g>
                <g aria-label="8" id="text4"
                    style="font-weight:bold;font-size:3.25994px;line-height:1.25;font-family:Roboto;-inkscape-font-specification:'Roboto, Bold';letter-spacing:0px;word-spacing:0px;fill:#150000;fill-opacity:0.75;stroke-width:0.244495">
                    <path
                        d="m 23.823366,19.732294 q 0,0.168727 -0.08436,0.299252 -0.08436,0.130525 -0.232398,0.208522 0.168727,0.08118 0.267417,0.224439 0.09869,0.141667 0.09869,0.334271 0,0.308803 -0.210113,0.488673 -0.210113,0.178278 -0.571444,0.178278 -0.361332,0 -0.573037,-0.17987 -0.211705,-0.17987 -0.211705,-0.487081 0,-0.192604 0.09869,-0.335863 0.09869,-0.143259 0.265825,-0.222847 -0.148034,-0.078 -0.232398,-0.208522 -0.08277,-0.130525 -0.08277,-0.299252 0,-0.296069 0.197379,-0.471163 0.197379,-0.176687 0.536426,-0.176687 0.337455,0 0.534834,0.175095 0.198971,0.173502 0.198971,0.472755 z m -0.412268,1.033057 q 0,-0.151218 -0.08755,-0.241949 -0.08755,-0.09073 -0.235582,-0.09073 -0.146443,0 -0.23399,0.09073 -0.08755,0.08914 -0.08755,0.241949 0,0.148034 0.08596,0.238765 0.08595,0.09073 0.238765,0.09073 0.149626,0 0.233989,-0.08755 0.08596,-0.08755 0.08596,-0.241949 z m -0.04775,-1.010773 q 0,-0.1353 -0.07163,-0.21648 -0.07163,-0.08277 -0.202154,-0.08277 -0.128933,0 -0.200563,0.07959 -0.07163,0.07959 -0.07163,0.219663 0,0.138484 0.07163,0.222848 0.07163,0.08436 0.202155,0.08436 0.130525,0 0.200562,-0.08436 0.07163,-0.08436 0.07163,-0.222848 z"
                        id="path16817" />
                </g>
                <g aria-label="2" id="text5"
                    style="font-weight:bold;font-size:3.25994px;line-height:1.25;font-family:Roboto;-inkscape-font-specification:'Roboto, Bold';letter-spacing:0px;word-spacing:0px;fill:#150000;fill-opacity:0.75;stroke-width:0.244495">
                    <path
                        d="m 26.208476,21.44981 h -1.588584 v -0.31517 l 0.749722,-0.799067 q 0.154402,-0.168728 0.227623,-0.294477 0.07481,-0.12575 0.07481,-0.238765 0,-0.154402 -0.078,-0.241949 -0.078,-0.08914 -0.222848,-0.08914 -0.155993,0 -0.246724,0.10824 -0.08914,0.106649 -0.08914,0.281743 h -0.461612 q 0,-0.211705 0.100281,-0.386799 0.101873,-0.175095 0.286518,-0.273784 0.184645,-0.100282 0.418635,-0.100282 0.358148,0 0.555527,0.171911 0.198971,0.171911 0.198971,0.485489 0,0.171911 -0.08914,0.350189 -0.08914,0.178278 -0.305619,0.415451 l -0.526876,0.555527 h 0.996447 z"
                        id="path16820" />
                </g>
                <g aria-label="3" id="text6"
                    style="font-weight:bold;font-size:3.25994px;line-height:1.25;font-family:Roboto;-inkscape-font-specification:'Roboto, Bold';letter-spacing:0px;word-spacing:0px;fill:#150000;fill-opacity:0.75;stroke-width:0.244495">
                    <path
                        d="m 27.411701,20.07134 h 0.245132 q 0.175095,0 0.259459,-0.08755 0.08436,-0.08755 0.08436,-0.232398 0,-0.140076 -0.08436,-0.218072 -0.08277,-0.078 -0.229215,-0.078 -0.132117,0 -0.221256,0.07322 -0.08914,0.07163 -0.08914,0.187829 h -0.46002 q 0,-0.181461 0.0971,-0.324721 0.09869,-0.14485 0.273784,-0.226031 0.176687,-0.08118 0.388392,-0.08118 0.367698,0 0.57622,0.176687 0.208521,0.175094 0.208521,0.483897 0,0.159177 -0.0971,0.292885 -0.0971,0.133709 -0.254683,0.205338 0.195788,0.07004 0.291294,0.210113 0.0971,0.140076 0.0971,0.331088 0,0.308803 -0.226031,0.49504 -0.224439,0.186237 -0.595321,0.186237 -0.347006,0 -0.568261,-0.183054 -0.219664,-0.183053 -0.219664,-0.483897 h 0.460021 q 0,0.130525 0.0971,0.213297 0.09869,0.08277 0.241949,0.08277 0.163952,0 0.256275,-0.08596 0.09391,-0.08755 0.09391,-0.230806 0,-0.347005 -0.382024,-0.347005 h -0.243541 z"
                        id="path16823" />
                </g>
                <g aria-label="4" id="text7"
                    style="font-weight:bold;font-size:3.25994px;line-height:1.25;font-family:Roboto;-inkscape-font-specification:'Roboto, Bold';letter-spacing:0px;word-spacing:0px;fill:#150000;fill-opacity:0.75;stroke-width:0.244495">
                    <path
                        d="m 30.57837,20.561605 h 0.262642 v 0.370881 H 30.57837 v 0.501407 h -0.460021 v -0.501407 h -0.950285 l -0.02069,-0.289701 0.966203,-1.526505 h 0.464796 z m -0.97257,0 h 0.512549 v -0.818169 l -0.03024,0.05253 z"
                        id="path16826" />
                </g>
                <g aria-label="2" id="text8"
                    style="font-weight:bold;font-size:3.25994px;line-height:1.25;font-family:Roboto;-inkscape-font-specification:'Roboto, Bold';letter-spacing:0px;word-spacing:0px;fill:#910000;fill-opacity:0.75;stroke-width:0.244495">
                    <path
                        d="m 33.113107,21.44981 h -1.588584 v -0.31517 l 0.749722,-0.799067 q 0.154402,-0.168728 0.227623,-0.294477 0.07481,-0.12575 0.07481,-0.238765 0,-0.154402 -0.078,-0.241949 -0.078,-0.08914 -0.222847,-0.08914 -0.155993,0 -0.246724,0.10824 -0.08914,0.106649 -0.08914,0.281743 h -0.461613 q 0,-0.211705 0.100282,-0.386799 0.101873,-0.175095 0.286518,-0.273784 0.184645,-0.100282 0.418635,-0.100282 0.358147,0 0.555527,0.171911 0.198971,0.171911 0.198971,0.485489 0,0.171911 -0.08914,0.350189 -0.08914,0.178278 -0.30562,0.415451 l -0.526875,0.555527 h 0.996447 z"
                        id="path16829" />
                </g>
            </g>
        </g>
    </g>
</svg>
